# Blender 4.0.2
# www.blender.org
mtllib blue neon.mtl
o neon_bottom
v -0.535774 -0.672811 -0.546149
v -0.483689 -0.672811 -0.546149
v -0.535773 -0.672811 -0.501824
v -0.535774 -0.840588 -0.546149
v -0.483689 -0.840588 -0.546149
v -0.535773 -0.840588 -0.501824
v -0.483689 -0.840588 -0.501824
v -0.483689 -0.672811 -0.501824
v -0.535774 0.840589 -0.546149
v -0.483689 0.840589 -0.546149
v -0.535773 0.840589 -0.501824
v -0.535774 0.672811 -0.546149
v -0.483689 0.672811 -0.546149
v -0.535773 0.672811 -0.501824
v -0.483689 0.672811 -0.501824
v -0.483689 0.840589 -0.501824
v -0.535774 0.327190 -0.546149
v -0.483689 0.327190 -0.546149
v -0.535773 0.327190 -0.501824
v -0.535774 0.159413 -0.546149
v -0.483689 0.159413 -0.546149
v -0.535773 0.159413 -0.501824
v -0.483689 0.159413 -0.501824
v -0.483689 0.327190 -0.501824
v -0.535774 0.583889 -0.546149
v -0.483689 0.583889 -0.546149
v -0.535773 0.583889 -0.501824
v -0.535774 0.416112 -0.546149
v -0.483689 0.416112 -0.546149
v -0.535773 0.416112 -0.501824
v -0.483689 0.416112 -0.501824
v -0.483689 0.583889 -0.501824
v -0.535774 -0.416112 -0.546149
v -0.483689 -0.416112 -0.546149
v -0.535773 -0.416112 -0.501824
v -0.535774 -0.583889 -0.546149
v -0.483689 -0.583889 -0.546149
v -0.535773 -0.583889 -0.501824
v -0.483689 -0.583889 -0.501824
v -0.483689 -0.416112 -0.501824
v -0.535774 -0.159412 -0.546149
v -0.483689 -0.159412 -0.546149
v -0.535773 -0.159412 -0.501824
v -0.535774 -0.327190 -0.546149
v -0.483689 -0.327190 -0.546149
v -0.535773 -0.327190 -0.501824
v -0.483689 -0.327190 -0.501824
v -0.483689 -0.159412 -0.501824
v 0.535774 -0.672811 -0.546149
v 0.483689 -0.672811 -0.546149
v 0.535773 -0.672811 -0.501824
v 0.535774 -0.840588 -0.546149
v 0.483689 -0.840588 -0.546149
v 0.535773 -0.840588 -0.501824
v 0.483689 -0.840588 -0.501824
v 0.483689 -0.672811 -0.501824
v 0.535774 0.840589 -0.546149
v 0.483689 0.840589 -0.546149
v 0.535773 0.840589 -0.501824
v 0.535774 0.672811 -0.546149
v 0.483689 0.672811 -0.546149
v 0.535773 0.672811 -0.501824
v 0.483689 0.672811 -0.501824
v 0.483689 0.840589 -0.501824
v 0.535774 0.327190 -0.546149
v 0.483689 0.327190 -0.546149
v 0.535773 0.327190 -0.501824
v 0.535774 0.159413 -0.546149
v 0.483689 0.159413 -0.546149
v 0.535773 0.159413 -0.501824
v 0.483689 0.159413 -0.501824
v 0.483689 0.327190 -0.501824
v 0.535774 0.583889 -0.546149
v 0.483689 0.583889 -0.546149
v 0.535773 0.583889 -0.501824
v 0.535774 0.416112 -0.546149
v 0.483689 0.416112 -0.546149
v 0.535773 0.416112 -0.501824
v 0.483689 0.416112 -0.501824
v 0.483689 0.583889 -0.501824
v 0.535774 -0.416112 -0.546149
v 0.483689 -0.416112 -0.546149
v 0.535773 -0.416112 -0.501824
v 0.535774 -0.583889 -0.546149
v 0.483689 -0.583889 -0.546149
v 0.535773 -0.583889 -0.501824
v 0.483689 -0.583889 -0.501824
v 0.483689 -0.416112 -0.501824
v 0.535774 -0.159412 -0.546149
v 0.483689 -0.159412 -0.546149
v 0.535773 -0.159412 -0.501824
v 0.535774 -0.327190 -0.546149
v 0.483689 -0.327190 -0.546149
v 0.535773 -0.327190 -0.501824
v 0.483689 -0.327190 -0.501824
v 0.483689 -0.159412 -0.501824
vn -0.0000 -0.0000 -1.0000
vn -0.0000 1.0000 -0.0000
vn -1.0000 -0.0000 -0.0000
vn -0.0000 -1.0000 -0.0000
vn 1.0000 -0.0000 -0.0000
vt 0.125000 0.500000
vt 0.375000 0.500000
vt 0.375000 0.750000
vt 0.125000 0.750000
vt 0.375000 0.000000
vt 0.625000 0.000000
vt 0.625000 0.250000
vt 0.375000 0.250000
vt 0.625000 0.750000
vt 0.625000 1.000000
vt 0.375000 1.000000
vt 0.625000 0.500000
s 1
usemtl neon.001
f 2/1/1 5/2/1 4/3/1 1/4/1
f 1/5/2 3/6/2 8/7/2 2/8/2
f 4/3/3 6/9/3 3/10/3 1/11/3
f 5/2/4 7/12/4 6/9/4 4/3/4
f 2/8/5 8/7/5 7/12/5 5/2/5
f 10/1/1 13/2/1 12/3/1 9/4/1
f 9/5/2 11/6/2 16/7/2 10/8/2
f 12/3/3 14/9/3 11/10/3 9/11/3
f 13/2/4 15/12/4 14/9/4 12/3/4
f 10/8/5 16/7/5 15/12/5 13/2/5
f 18/1/1 21/2/1 20/3/1 17/4/1
f 17/5/2 19/6/2 24/7/2 18/8/2
f 20/3/3 22/9/3 19/10/3 17/11/3
f 21/2/4 23/12/4 22/9/4 20/3/4
f 18/8/5 24/7/5 23/12/5 21/2/5
f 26/1/1 29/2/1 28/3/1 25/4/1
f 25/5/2 27/6/2 32/7/2 26/8/2
f 28/3/3 30/9/3 27/10/3 25/11/3
f 29/2/4 31/12/4 30/9/4 28/3/4
f 26/8/5 32/7/5 31/12/5 29/2/5
f 34/1/1 37/2/1 36/3/1 33/4/1
f 33/5/2 35/6/2 40/7/2 34/8/2
f 36/3/3 38/9/3 35/10/3 33/11/3
f 37/2/4 39/12/4 38/9/4 36/3/4
f 34/8/5 40/7/5 39/12/5 37/2/5
f 42/1/1 45/2/1 44/3/1 41/4/1
f 41/5/2 43/6/2 48/7/2 42/8/2
f 44/3/3 46/9/3 43/10/3 41/11/3
f 45/2/4 47/12/4 46/9/4 44/3/4
f 42/8/5 48/7/5 47/12/5 45/2/5
f 50/1/1 49/4/1 52/3/1 53/2/1
f 49/5/2 50/8/2 56/7/2 51/6/2
f 52/3/5 49/11/5 51/10/5 54/9/5
f 53/2/4 52/3/4 54/9/4 55/12/4
f 50/8/3 53/2/3 55/12/3 56/7/3
f 58/1/1 57/4/1 60/3/1 61/2/1
f 57/5/2 58/8/2 64/7/2 59/6/2
f 60/3/5 57/11/5 59/10/5 62/9/5
f 61/2/4 60/3/4 62/9/4 63/12/4
f 58/8/3 61/2/3 63/12/3 64/7/3
f 66/1/1 65/4/1 68/3/1 69/2/1
f 65/5/2 66/8/2 72/7/2 67/6/2
f 68/3/5 65/11/5 67/10/5 70/9/5
f 69/2/4 68/3/4 70/9/4 71/12/4
f 66/8/3 69/2/3 71/12/3 72/7/3
f 74/1/1 73/4/1 76/3/1 77/2/1
f 73/5/2 74/8/2 80/7/2 75/6/2
f 76/3/5 73/11/5 75/10/5 78/9/5
f 77/2/4 76/3/4 78/9/4 79/12/4
f 74/8/3 77/2/3 79/12/3 80/7/3
f 82/1/1 81/4/1 84/3/1 85/2/1
f 81/5/2 82/8/2 88/7/2 83/6/2
f 84/3/5 81/11/5 83/10/5 86/9/5
f 85/2/4 84/3/4 86/9/4 87/12/4
f 82/8/3 85/2/3 87/12/3 88/7/3
f 90/1/1 89/4/1 92/3/1 93/2/1
f 89/5/2 90/8/2 96/7/2 91/6/2
f 92/3/5 89/11/5 91/10/5 94/9/5
f 93/2/4 92/3/4 94/9/4 95/12/4
f 90/8/3 93/2/3 95/12/3 96/7/3
