# Blender 4.0.2
# www.blender.org
mtllib border_cylinder.mtl
o border_cylinder
v 1.000000 1.000000 -0.000000
v 0.980785 1.000000 -0.195090
v 0.831470 -1.000000 -0.555570
v 0.555570 1.000000 -0.831470
v 0.555570 -1.000000 -0.831470
v -0.195090 1.000000 -0.980785
v -0.382683 1.000000 -0.923880
v -0.707107 1.000000 -0.707107
v -0.831470 1.000000 -0.555570
v -0.923880 1.000000 -0.382684
v -0.923880 1.000000 0.382683
v -0.923880 -1.000000 0.382684
v -0.831470 -1.000000 0.555570
v -0.707107 -1.000000 0.707107
v -0.555570 -1.000000 0.831470
v -0.382683 1.000000 0.923879
v -0.382683 -1.000000 0.923880
v -0.195090 1.000000 0.980785
v -0.195090 -1.000000 0.980785
v 0.555570 -1.000000 0.831470
v 0.707107 -1.000000 0.707107
v 0.831470 1.000000 0.555570
v 0.923880 1.000000 0.382683
v 0.923880 -1.000000 0.382684
v 0.980785 1.000000 0.195090
v 0.980785 -1.000000 0.195090
v 0.980785 -1.000000 -0.195090
v 1.000000 -1.000000 0.000000
v 0.923880 1.000000 -0.382684
v 0.923880 -1.000000 -0.382683
v 0.831470 1.000000 -0.555570
v 0.707107 1.000000 -0.707107
v 0.707107 -1.000000 -0.707107
v 0.382683 1.000000 -0.923880
v 0.382683 -1.000000 -0.923879
v 0.195090 1.000000 -0.980785
v 0.195090 -1.000000 -0.980785
v 0.000000 1.000000 -1.000000
v 0.000000 -1.000000 -1.000000
v -0.195090 -1.000000 -0.980785
v -0.382683 -1.000000 -0.923879
v -0.555570 1.000000 -0.831470
v -0.555570 -1.000000 -0.831470
v -0.707107 -1.000000 -0.707107
v -0.831470 -1.000000 -0.555570
v -0.923880 -1.000000 -0.382683
v -0.980785 1.000000 -0.195090
v -0.980785 -1.000000 -0.195090
v -1.000000 1.000000 -0.000000
v -1.000000 -1.000000 0.000000
v -0.980785 1.000000 0.195090
v -0.980785 -1.000000 0.195090
v -0.831470 1.000000 0.555570
v -0.707107 1.000000 0.707107
v -0.555570 1.000000 0.831470
v 0.000000 1.000000 1.000000
v 0.000000 -1.000000 1.000000
v 0.195090 1.000000 0.980785
v 0.195090 -1.000000 0.980785
v 0.382683 1.000000 0.923879
v 0.382683 -1.000000 0.923880
v 0.555570 1.000000 0.831470
v 0.707107 1.000000 0.707107
v 0.831470 -1.000000 0.555570
vn -1.0000 -0.0000 -0.0000
vn -0.9808 -0.0000 0.1951
vn -0.9239 -0.0000 0.3827
vn -0.8315 -0.0000 0.5556
vn -0.7071 -0.0000 0.7071
vn -0.5556 -0.0000 0.8315
vn -0.3827 -0.0000 0.9239
vn -0.0000 -0.0000 1.0000
vn 0.1951 -0.0000 0.9808
vn 0.3827 -0.0000 0.9239
vn 0.5556 -0.0000 0.8315
vn 0.7071 -0.0000 0.7071
vn 0.8315 -0.0000 0.5556
vn 0.9239 -0.0000 0.3827
vn 0.9808 -0.0000 0.1951
vn 0.9808 -0.0000 -0.1951
vn 0.9239 -0.0000 -0.3827
vn 0.8315 -0.0000 -0.5556
vn 0.7071 -0.0000 -0.7071
vn 0.5556 -0.0000 -0.8315
vn 0.3827 -0.0000 -0.9239
vn 0.1951 -0.0000 -0.9808
vn -0.0000 -0.0000 -1.0000
vn -0.3827 -0.0000 -0.9239
vn -0.5556 -0.0000 -0.8315
vn -0.7071 -0.0000 -0.7071
vn -0.8315 -0.0000 -0.5556
vn -0.9239 -0.0000 -0.3827
vn -0.9808 -0.0000 -0.1951
vn -0.1951 -0.0000 0.9808
vn 1.0000 -0.0000 -0.0000
vn -0.1951 -0.0000 -0.9808
vt 0.871743 0.330917
vt 0.840163 0.330917
vt 0.840163 0.002416
vt 0.871743 0.002416
vt 0.807964 0.330917
vt 0.807964 0.002416
vt 0.776384 0.330917
vt 0.776384 0.002416
vt 0.746636 0.330917
vt 0.746636 0.002416
vt 0.719864 0.330917
vt 0.719864 0.002416
vt 0.951031 0.664250
vt 0.928263 0.664250
vt 0.928263 0.335750
vt 0.951031 0.335750
vt 0.871743 0.664250
vt 0.840163 0.664250
vt 0.840163 0.335750
vt 0.871743 0.335750
vt 0.807964 0.664250
vt 0.807964 0.335750
vt 0.776384 0.664250
vt 0.776384 0.335750
vt 0.746636 0.664250
vt 0.746636 0.335750
vt 0.719864 0.664250
vt 0.719864 0.335750
vt 0.284364 0.997584
vt 0.261596 0.997584
vt 0.261596 0.669083
vt 0.284364 0.669083
vt 0.234824 0.997584
vt 0.234824 0.669083
vt 0.173496 0.997584
vt 0.141298 0.997584
vt 0.141298 0.669083
vt 0.173496 0.669083
vt 0.109718 0.997584
vt 0.109718 0.669083
vt 0.079970 0.997584
vt 0.079970 0.669083
vt 0.053198 0.997584
vt 0.053198 0.669083
vt 0.520363 0.997584
vt 0.497595 0.997584
vt 0.497595 0.669083
vt 0.520363 0.669083
vt 0.470823 0.997584
vt 0.470823 0.669083
vt 0.441075 0.997584
vt 0.441075 0.669083
vt 0.377297 0.997584
vt 0.345717 0.997584
vt 0.345717 0.669083
vt 0.377297 0.669083
vt 0.315969 0.997584
vt 0.315969 0.669083
vt 0.289197 0.997584
vt 0.289197 0.669083
vt 0.951031 0.330917
vt 0.928263 0.330917
vt 0.928263 0.002416
vt 0.951031 0.002416
vt 0.901491 0.330917
vt 0.901491 0.002416
vt 0.901491 0.664250
vt 0.901491 0.335750
vt 0.205076 0.997584
vt 0.205076 0.669083
vt 0.409495 0.997584
vt 0.409495 0.669083
s 1
usemtl border_cylinder
f 1/1/1 2/2/2 27/3/2 28/4/1
f 2/2/2 29/5/3 30/6/3 27/3/2
f 29/5/3 31/7/4 3/8/4 30/6/3
f 31/7/4 32/9/5 33/10/5 3/8/4
f 32/9/5 4/11/6 5/12/6 33/10/5
f 4/13/6 34/14/7 35/15/7 5/16/6
f 38/17/8 6/18/9 40/19/9 39/20/8
f 6/18/9 7/21/10 41/22/10 40/19/9
f 7/21/10 42/23/11 43/24/11 41/22/10
f 42/23/11 8/25/12 44/26/12 43/24/11
f 8/25/12 9/27/13 45/28/13 44/26/12
f 9/29/13 10/30/14 46/31/14 45/32/13
f 10/30/14 47/33/15 48/34/15 46/31/14
f 51/35/16 11/36/17 12/37/17 52/38/16
f 11/36/17 53/39/18 13/40/18 12/37/17
f 53/39/18 54/41/19 14/42/19 13/40/18
f 54/41/19 55/43/20 15/44/20 14/42/19
f 55/45/20 16/46/21 17/47/21 15/48/20
f 16/46/21 18/49/22 19/50/22 17/47/21
f 18/49/22 56/51/23 57/52/23 19/50/22
f 60/53/24 62/54/25 20/55/25 61/56/24
f 62/54/25 63/57/26 21/58/26 20/55/25
f 63/57/26 22/59/27 64/60/27 21/58/26
f 22/61/27 23/62/28 24/63/28 64/64/27
f 23/62/28 25/65/29 26/66/29 24/63/28
f 25/65/29 1/1/1 28/4/1 26/66/29
f 34/14/7 36/67/30 37/68/30 35/15/7
f 36/67/30 38/17/8 39/20/8 37/68/30
f 47/33/15 49/69/31 50/70/31 48/34/15
f 49/69/31 51/35/16 52/38/16 50/70/31
f 56/51/23 58/71/32 59/72/32 57/52/23
f 58/71/32 60/53/24 61/56/24 59/72/32
