# Blender 4.0.2
# www.blender.org
mtllib platform.mtl
o platform
v -0.702989 1.000000 -0.534540
v -0.702989 -1.000000 -0.534540
v 0.540799 1.000000 -0.534540
v 0.540799 -1.000000 -0.534540
v 0.000000 1.000000 -0.534540
v 0.000000 -1.000000 -0.534540
v 0.479086 -1.000000 -0.534540
v 0.479086 1.000000 -0.534540
v 0.490389 -1.000000 -0.489005
v 0.479086 -1.000000 -0.505083
v 0.482397 -1.000000 -0.493714
v 0.479086 1.000000 -0.505083
v 0.490389 1.000000 -0.489005
v 0.482397 1.000000 -0.493714
v 0.529496 1.000000 -0.489005
v 0.540799 1.000000 -0.505083
v 0.537489 1.000000 -0.493714
v 0.540799 -1.000000 -0.505083
v 0.529496 -1.000000 -0.489005
v 0.537489 -1.000000 -0.493714
v 0.702989 1.000000 -0.534540
v 0.702989 -1.000000 -0.534540
v -0.540799 1.000000 -0.534540
v -0.540799 -1.000000 -0.534540
v -0.479086 -1.000000 -0.534540
v -0.479086 1.000000 -0.534540
v -0.490389 -1.000000 -0.489005
v -0.479086 -1.000000 -0.505083
v -0.482397 -1.000000 -0.493714
v -0.479086 1.000000 -0.505083
v -0.490389 1.000000 -0.489005
v -0.482397 1.000000 -0.493714
v -0.529496 1.000000 -0.489005
v -0.540799 1.000000 -0.505083
v -0.537489 1.000000 -0.493714
v -0.540799 -1.000000 -0.505083
v -0.529496 -1.000000 -0.489005
v -0.537489 -1.000000 -0.493714
vn -0.0000 -0.0000 1.0000
vn -0.2723 -0.0000 0.9622
vn 0.2723 -0.0000 0.9622
vn 1.0000 -0.0000 -0.0000
vn 0.9904 -0.0000 0.1385
vn -0.5077 -0.0000 0.8616
vn -0.9601 -0.0000 0.2796
vn -0.9904 -0.0000 0.1385
vn 0.9601 -0.0000 0.2796
vn 0.5077 -0.0000 0.8616
vn -1.0000 -0.0000 -0.0000
vt 0.295987 0.001066
vt 0.636011 0.998934
vt 0.295987 0.998934
vt 0.643814 0.998934
vt 0.643814 0.001066
vt 0.671570 0.001066
vt 0.671570 0.998934
vt 0.722377 0.001066
vt 0.722377 0.998934
vt 0.707963 0.998934
vt 0.707963 0.001066
vt 0.638142 0.998934
vt 0.638142 0.001066
vt 0.679374 0.998934
vt 0.679374 0.001066
vt 0.685396 0.001066
vt 0.685396 0.998934
vt 0.701941 0.998934
vt 0.701941 0.001066
vt 0.677242 0.001066
vt 0.677243 0.998934
vt 0.699810 0.001066
vt 0.699810 0.998934
vt 0.636010 0.001066
s 1
usemtl platform
f 6/1/1 8/2/1 5/3/1
f 13/4/2 9/5/2 19/6/3 15/7/3
f 4/8/4 3/9/4 16/10/5 18/11/5
f 9/5/2 13/4/2 14/12/6 11/13/6
f 11/14/7 14/15/7 12/16/8 10/17/8
f 18/11/5 16/10/5 17/18/9 20/19/9
f 20/20/10 17/21/10 15/7/3 19/6/3
f 8/22/11 7/23/11 10/17/8 12/16/8
f 6/1/1 7/24/1 8/2/1
f 6/1/1 5/3/1 26/2/1
f 31/4/3 33/7/2 37/6/2 27/5/3
f 24/8/11 36/11/8 34/10/8 23/9/11
f 27/5/3 29/13/10 32/12/10 31/4/3
f 29/14/9 28/17/5 30/16/5 32/15/9
f 36/11/8 38/19/7 35/18/7 34/10/8
f 38/20/6 37/6/2 33/7/2 35/21/6
f 26/22/4 30/16/5 28/17/5 25/23/4
f 6/1/1 26/2/1 25/24/1
